<svg width="24" height="24" viewBox="0 0 24 24" fill="none" xmlns="http://www.w3.org/2000/svg">
<path d="M16.3478 4C16.4768 3.99999 16.6029 4.03272 16.7101 4.09404C16.8174 4.15537 16.901 4.24255 16.9504 4.34454C16.9997 4.44654 17.0126 4.55877 16.9875 4.66705C16.9623 4.77532 16.9002 4.87478 16.8089 4.95284L8.57451 12L16.8089 19.0471C16.9313 19.1518 17 19.2938 17 19.4418C17 19.5899 16.9313 19.7318 16.8089 19.8365C16.6866 19.9412 16.5207 20 16.3478 20C16.1748 20 16.0089 19.9412 15.8866 19.8365L7.19105 12.3947C7.13048 12.3428 7.08243 12.2813 7.04965 12.2136C7.01687 12.1459 7 12.0733 7 12C7 11.9267 7.01687 11.8541 7.04965 11.7864C7.08243 11.7186 7.13048 11.6571 7.19105 11.6053L15.8866 4.16344C15.9471 4.11153 16.019 4.07037 16.0981 4.04232C16.1772 4.01427 16.2621 3.99989 16.3478 4Z" fill="white"/>
</svg>
