<svg width="64" height="64" viewBox="0 0 64 64" fill="none" xmlns="http://www.w3.org/2000/svg">
<path d="M56.914 40.6329C58.8522 35.0383 58.8514 28.9541 56.9116 23.36C56.8804 23.2519 56.8429 23.1456 56.7993 23.0419C54.9572 17.9426 51.5879 13.5352 47.1505 10.42C42.713 7.30473 37.4232 5.63311 32.0014 5.63281C26.5796 5.63252 21.2896 7.30357 16.8518 10.4183C12.414 13.5331 9.0443 17.9401 7.20163 23.0392C7.15704 23.1451 7.11873 23.2535 7.08689 23.3639C5.14695 28.9613 5.14815 35.0488 7.0903 40.6454C7.12076 40.7501 7.15711 40.8531 7.19919 40.9537C9.0406 46.0534 12.4093 50.4614 16.8464 53.5773C21.2835 56.6932 26.5732 58.3656 31.9951 58.3666C37.417 58.3676 42.7074 56.6972 47.1457 53.583C51.5839 50.4687 54.9543 46.0619 56.7976 40.963C56.8429 40.8554 56.8818 40.7452 56.914 40.6329ZM27.1596 42.7423H36.8403C35.721 45.6666 34.0811 48.3639 32 50.7035C29.9189 48.3639 28.2789 45.6665 27.1596 42.7421V42.7423ZM25.5639 36.8829C25.0308 33.6496 25.0308 30.3507 25.5639 27.1173H38.436C38.9691 30.3507 38.9691 33.6496 38.436 36.8829H25.5639ZM11.4922 31.9999C11.4925 30.3544 11.6913 28.715 12.0842 27.1171H19.6294C19.1967 30.3579 19.1967 33.6419 19.6294 36.8827H12.0842C11.6913 35.2848 11.4925 33.6454 11.4922 31.9999ZM36.8405 21.2577H27.1594C28.2787 18.3333 29.9187 15.6359 32 13.2963C34.0812 15.6359 35.7212 18.3333 36.8405 21.2577ZM44.3708 27.1171H51.9157C52.7052 30.3244 52.7052 33.6754 51.9157 36.8827H44.3706C44.8032 33.6419 44.8032 30.3579 44.3706 27.1171H44.3708ZM49.4599 21.2577H43.0805C42.1408 18.2273 40.7624 15.3508 38.9892 12.7198C43.3393 14.309 47.0277 17.3165 49.4599 21.2577ZM25.0107 12.7201C23.2375 15.351 21.8592 18.2274 20.9194 21.2577H14.54C16.9723 17.3166 20.6606 14.3092 25.0107 12.7201ZM14.54 42.7421H20.9194C21.8592 45.7725 23.2377 48.6489 25.011 51.2799C20.6607 49.6909 16.9722 46.6835 14.5398 42.7423L14.54 42.7421ZM38.989 51.2799C40.7623 48.649 42.1407 45.7726 43.0805 42.7423H49.4599C47.0276 46.6834 43.3391 49.6909 38.989 51.2799Z" fill="#7A960F"/>
</svg>
