<svg width="46" height="44" viewBox="0 0 46 44" fill="none" xmlns="http://www.w3.org/2000/svg">
<path d="M21.0814 19.6458V1.4375C21.0814 1.05625 21.2329 0.690618 21.5025 0.421035C21.772 0.151451 22.1377 0 22.5189 0C22.9002 0 23.2658 0.151451 23.5354 0.421035C23.805 0.690618 23.9564 1.05625 23.9564 1.4375V19.6458C23.9564 20.0271 23.805 20.3927 23.5354 20.6623C23.2658 20.9319 22.9002 21.0833 22.5189 21.0833C22.1377 21.0833 21.772 20.9319 21.5025 20.6623C21.2329 20.3927 21.0814 20.0271 21.0814 19.6458ZM34.8064 1.72596C34.6483 1.62194 34.4712 1.55018 34.2853 1.51478C34.0993 1.47938 33.9083 1.48105 33.723 1.51968C33.5377 1.55832 33.3619 1.63316 33.2056 1.73992C33.0493 1.84668 32.9156 1.98325 32.8123 2.14179C32.7089 2.30034 32.6379 2.47773 32.6032 2.6638C32.5686 2.84987 32.571 3.04095 32.6104 3.22607C32.6498 3.4112 32.7253 3.58672 32.8327 3.74257C32.9401 3.89842 33.0772 4.03152 33.2362 4.13425C36.7859 6.44421 39.4941 9.83941 40.9572 13.8138C42.4202 17.7882 42.5598 22.129 41.355 26.1891C40.1503 30.2493 37.6657 33.8115 34.2717 36.3446C30.8777 38.8778 26.756 40.2464 22.5208 40.2464C18.2857 40.2464 14.164 38.8778 10.77 36.3446C7.37594 33.8115 4.8914 30.2493 3.68665 26.1891C2.4819 22.129 2.62145 17.7882 4.0845 13.8138C5.54755 9.83941 8.25576 6.44421 11.8055 4.13425C11.9636 4.03115 12.0999 3.89791 12.2066 3.74213C12.3132 3.58636 12.3881 3.4111 12.4271 3.22637C12.466 3.04164 12.4681 2.85105 12.4334 2.66549C12.3987 2.47992 12.3277 2.30302 12.2246 2.14487C12.1215 1.98672 11.9883 1.85043 11.8325 1.74378C11.6767 1.63713 11.5015 1.5622 11.3167 1.52328C11.132 1.48436 10.9414 1.4822 10.7559 1.51694C10.5703 1.55167 10.3934 1.62262 10.2352 1.72572C6.16654 4.37406 3.06254 8.26624 1.38584 12.8222C-0.290857 17.3782 -0.450471 22.3539 0.930785 27.008C2.31204 31.662 5.16021 35.7452 9.05082 38.6488C12.9414 41.5525 17.6661 43.1212 22.5208 43.1212C27.3755 43.1212 32.1003 41.5525 35.9909 38.6488C39.8815 35.7452 42.7296 31.662 44.1109 27.008C45.4921 22.3539 45.3325 17.3782 43.6558 12.8222C41.9791 8.26624 38.8751 4.3743 34.8064 1.72596Z" fill="white"/>
</svg>
