<svg width="32" height="32" viewBox="0 0 32 32" fill="none" xmlns="http://www.w3.org/2000/svg">
<path d="M23 15C23.2652 15 23.5196 15.1054 23.7071 15.2929C23.8946 15.4804 24 15.7348 24 16C24 16.2652 23.8946 16.5196 23.7071 16.7071C23.5196 16.8946 23.2652 17 23 17H16C15.7348 17 15.4804 16.8946 15.2929 16.7071C15.1054 16.5196 15 16.2652 15 16V9C15 8.73478 15.1054 8.48042 15.2929 8.29289C15.4804 8.10535 15.7348 8 16 8C16.2652 8 16.5196 8.10535 16.7071 8.29289C16.8946 8.48042 17 8.73478 17 9V15H23ZM24.4852 7.51475C26.4484 9.47787 27.67 12.0609 27.9422 14.8238C28.2143 17.5867 27.52 20.3585 25.9775 22.6669C24.4351 24.9753 22.14 26.6774 19.4833 27.4833C16.8266 28.2892 13.9726 28.149 11.4077 27.0865C8.84275 26.0241 6.72556 24.1052 5.41685 21.6567C4.10814 19.2083 3.68888 16.3818 4.23052 13.6589C4.77216 10.9359 6.24117 8.48506 8.38726 6.72383C10.5333 4.9626 13.2237 3.99998 16 4C17.5765 3.99571 19.1382 4.30414 20.5947 4.90745C22.0512 5.51076 23.3735 6.39695 24.4852 7.51475ZM26 16C26 13.6864 25.1979 11.4444 23.7302 9.65603C22.2625 7.86761 20.2201 6.64341 17.951 6.19203C15.6819 5.74065 13.3265 6.09001 11.2861 7.18059C9.24575 8.27117 7.64663 10.0355 6.76124 12.1729C5.87586 14.3104 5.759 16.6887 6.43056 18.9026C7.10213 21.1165 8.52057 23.0291 10.4442 24.3145C12.3678 25.5999 14.6776 26.1785 16.9801 25.9517C19.2825 25.725 21.435 24.7069 23.071 23.071C24.0025 22.1446 24.741 21.0426 25.2438 19.8289C25.7465 18.6151 26.0036 17.3137 26 16ZM29.435 6.8075L25.1925 2.565C25.005 2.37745 24.7506 2.27209 24.4854 2.27209C24.2201 2.27209 23.9658 2.37745 23.7782 2.565C23.5907 2.75254 23.4853 3.0069 23.4853 3.27212C23.4853 3.53734 23.5907 3.7917 23.7782 3.97925L28.0207 8.22175C28.2083 8.4093 28.4626 8.51469 28.7278 8.51471C28.9931 8.51473 29.2474 8.4094 29.435 8.22187C29.6226 8.03435 29.7279 7.77999 29.728 7.51477C29.728 7.24955 29.6226 6.99518 29.4351 6.80762L29.435 6.8075ZM8.22175 2.565C8.03421 2.37749 7.77988 2.27215 7.51468 2.27215C7.24949 2.27215 6.99515 2.37749 6.80762 2.565L2.565 6.8075C2.37745 6.99504 2.27209 7.2494 2.27209 7.51462C2.27209 7.77984 2.37745 8.0342 2.565 8.22175C2.75254 8.40929 3.0069 8.51465 3.27212 8.51465C3.53734 8.51465 3.7917 8.40929 3.97925 8.22175L8.22175 3.97925C8.31461 3.88639 8.38827 3.77614 8.43853 3.65482C8.48879 3.53349 8.51466 3.40345 8.51466 3.27212C8.51466 3.14079 8.48879 3.01075 8.43853 2.88943C8.38827 2.7681 8.31461 2.65785 8.22175 2.565Z" fill="white"/>
</svg>
