<?xml version="1.0" encoding="utf-8"?><!-- Uploaded to: SVG Repo, www.svgrepo.com, Generator: SVG Repo Mixer Tools -->
<svg width="800px" height="800px" viewBox="0 0 24 24" fill="none" xmlns="http://www.w3.org/2000/svg">
<path opacity="0.4" d="M19.325 9.46826C19.325 9.46826 18.782 16.2033 18.467 19.0403C18.317 20.3953 17.48 21.1893 16.109 21.2143C13.5 21.2613 10.888 21.2643 8.28003 21.2093C6.96103 21.1823 6.13803 20.3783 5.99103 19.0473C5.67403 16.1853 5.13403 9.46826 5.13403 9.46826" stroke="#130F26" stroke-width="1.5" stroke-linecap="round" stroke-linejoin="round"/>
<path d="M20.7082 6.23975H3.75024" stroke="#130F26" stroke-width="1.5" stroke-linecap="round" stroke-linejoin="round"/>
<path d="M17.4406 6.23973C16.6556 6.23973 15.9796 5.68473 15.8256 4.91573L15.5826 3.69973C15.4326 3.13873 14.9246 2.75073 14.3456 2.75073H10.1126C9.53358 2.75073 9.02558 3.13873 8.87558 3.69973L8.63258 4.91573C8.47858 5.68473 7.80258 6.23973 7.01758 6.23973" stroke="#130F26" stroke-width="1.5" stroke-linecap="round" stroke-linejoin="round"/>
</svg>