<svg width="24" height="24" viewBox="0 0 24 24" fill="none" xmlns="http://www.w3.org/2000/svg">
<path d="M12 2.4375C10.1087 2.4375 8.25991 2.99833 6.68736 4.04907C5.11482 5.09981 3.88917 6.59327 3.16541 8.34059C2.44164 10.0879 2.25227 12.0106 2.62125 13.8656C2.99022 15.7205 3.90096 17.4244 5.2383 18.7617C6.57564 20.099 8.27951 21.0098 10.1345 21.3788C11.9894 21.7477 13.9121 21.5584 15.6594 20.8346C17.4067 20.1108 18.9002 18.8852 19.9509 17.3126C21.0017 15.7401 21.5625 13.8913 21.5625 12C21.5597 9.46474 20.5513 7.03414 18.7586 5.24144C16.9659 3.44874 14.5353 2.44035 12 2.4375ZM12 20.4375C10.3312 20.4375 8.69992 19.9426 7.31238 19.0155C5.92484 18.0884 4.84338 16.7706 4.20477 15.2289C3.56616 13.6871 3.39907 11.9906 3.72463 10.3539C4.05019 8.71721 4.85379 7.21379 6.03379 6.03379C7.2138 4.85378 8.71722 4.05019 10.3539 3.72462C11.9906 3.39906 13.6871 3.56615 15.2289 4.20477C16.7706 4.84338 18.0884 5.92484 19.0155 7.31238C19.9427 8.69992 20.4375 10.3312 20.4375 12C20.435 14.237 19.5452 16.3816 17.9634 17.9634C16.3816 19.5452 14.237 20.435 12 20.4375ZM15.5798 12.1702C15.632 12.2225 15.6734 12.2845 15.7017 12.3527C15.73 12.421 15.7445 12.4942 15.7445 12.568C15.7445 12.6419 15.73 12.7151 15.7017 12.7833C15.6734 12.8516 15.632 12.9136 15.5798 12.9658L12.3978 16.1477C12.3456 16.1999 12.2835 16.2414 12.2153 16.2696C12.147 16.2979 12.0739 16.3125 12 16.3125C11.9261 16.3125 11.853 16.2979 11.7847 16.2696C11.7165 16.2414 11.6545 16.1999 11.6022 16.1477L8.42035 12.9658C8.31485 12.8603 8.25558 12.7173 8.25557 12.5681C8.25556 12.4189 8.31482 12.2758 8.4203 12.1703C8.52579 12.0648 8.66886 12.0055 8.81805 12.0055C8.96724 12.0055 9.11032 12.0648 9.21582 12.1702L11.4375 14.392V8.25C11.4375 8.10082 11.4968 7.95774 11.6023 7.85225C11.7077 7.74676 11.8508 7.6875 12 7.6875C12.1492 7.6875 12.2923 7.74676 12.3978 7.85225C12.5032 7.95774 12.5625 8.10082 12.5625 8.25V14.392L14.7842 12.1702C14.8364 12.118 14.8984 12.0766 14.9667 12.0483C15.0349 12.02 15.1081 12.0055 15.182 12.0055C15.2558 12.0055 15.329 12.02 15.3973 12.0483C15.4655 12.0766 15.5275 12.118 15.5798 12.1702Z" fill="white"/>
</svg>
