<?xml version="1.0" encoding="utf-8"?><!-- Uploaded to: SVG Repo, www.svgrepo.com, Generator: SVG Repo Mixer Tools -->
<svg width="800px" height="800px" viewBox="0 0 24 24" fill="none" xmlns="http://www.w3.org/2000/svg">
<path opacity="0.4" d="M11.4922 2.78906H7.75324C4.67824 2.78906 2.75024 4.96606 2.75024 8.04806V16.3621C2.75024 19.4441 4.66924 21.6211 7.75324 21.6211H16.5772C19.6622 21.6211 21.5812 19.4441 21.5812 16.3621V12.3341" stroke="#130F26" stroke-width="1.5" stroke-linecap="round" stroke-linejoin="round"/>
<path fill-rule="evenodd" clip-rule="evenodd" d="M8.82763 10.921L16.3006 3.44799C17.2316 2.51799 18.7406 2.51799 19.6716 3.44799L20.8886 4.66499C21.8196 5.59599 21.8196 7.10599 20.8886 8.03599L13.3796 15.545C12.9726 15.952 12.4206 16.181 11.8446 16.181H8.09863L8.19263 12.401C8.20663 11.845 8.43363 11.315 8.82763 10.921Z" stroke="#130F26" stroke-width="1.5" stroke-linecap="round" stroke-linejoin="round"/>
<path d="M15.165 4.60254L19.731 9.16854" stroke="#130F26" stroke-width="1.5" stroke-linecap="round" stroke-linejoin="round"/>
</svg>