<svg width="32" height="32" viewBox="0 0 32 32" fill="none" xmlns="http://www.w3.org/2000/svg">
<path d="M26 5H6C5.20462 5.00089 4.44208 5.31725 3.87967 5.87967C3.31725 6.44208 3.00089 7.20462 3 8V22C3.00089 22.7954 3.31725 23.5579 3.87967 24.1203C4.44208 24.6828 5.20462 24.9991 6 25H15V27H12C11.7348 27 11.4804 27.1054 11.2929 27.2929C11.1054 27.4804 11 27.7348 11 28C11 28.2652 11.1054 28.5196 11.2929 28.7071C11.4804 28.8946 11.7348 29 12 29H20C20.2652 29 20.5196 28.8946 20.7071 28.7071C20.8946 28.5196 21 28.2652 21 28C21 27.7348 20.8946 27.4804 20.7071 27.2929C20.5196 27.1054 20.2652 27 20 27H17V25H26C26.7954 24.9991 27.5579 24.6828 28.1203 24.1203C28.6828 23.5579 28.9991 22.7954 29 22V8C28.9991 7.20462 28.6828 6.44208 28.1203 5.87967C27.5579 5.31725 26.7954 5.00089 26 5ZM6 7H26C26.2651 7.00033 26.5193 7.10579 26.7067 7.29326C26.8942 7.48072 26.9997 7.73488 27 8V18H5V8C5.00033 7.73488 5.10579 7.48072 5.29326 7.29326C5.48072 7.10579 5.73488 7.00033 6 7ZM26 23H6C5.73488 22.9997 5.48072 22.8942 5.29326 22.7067C5.10579 22.5193 5.00033 22.2651 5 22V20H27V22C26.9997 22.2651 26.8942 22.5193 26.7067 22.7067C26.5193 22.8942 26.2651 22.9997 26 23Z" fill="white"/>
</svg>
