<svg width="32" height="32" viewBox="0 0 32 32" fill="none" xmlns="http://www.w3.org/2000/svg">
<path d="M25 28H18.8175C19.8577 27.0728 20.8386 26.0813 21.7546 25.0312C25.1861 21.0849 27 16.9246 27 13C27 10.0826 25.8411 7.28473 23.7782 5.22183C21.7153 3.15893 18.9174 2 16 2C13.0826 2 10.2847 3.15893 8.22183 5.22183C6.15893 7.28473 5 10.0826 5 13C5 16.9245 6.81375 21.0849 10.2454 25.0312C11.1614 26.0813 12.1423 27.0728 13.1825 28H7C6.73478 28 6.48043 28.1054 6.29289 28.2929C6.10536 28.4804 6 28.7348 6 29C6 29.2652 6.10536 29.5196 6.29289 29.7071C6.48043 29.8946 6.73478 30 7 30H25C25.2652 30 25.5196 29.8946 25.7071 29.7071C25.8946 29.5196 26 29.2652 26 29C26 28.7348 25.8946 28.4804 25.7071 28.2929C25.5196 28.1054 25.2652 28 25 28ZM7 13C7 10.6131 7.94821 8.32387 9.63604 6.63604C11.3239 4.94821 13.6131 4 16 4C18.3869 4 20.6761 4.94821 22.364 6.63604C24.0518 8.32387 25 10.6131 25 13C25 20.1541 18.0662 26.1269 16 27.7475C13.9334 26.1266 7 20.1541 7 13ZM21 13C21 12.0111 20.7068 11.0444 20.1573 10.2221C19.6079 9.3999 18.827 8.75904 17.9134 8.3806C16.9998 8.00216 15.9945 7.90315 15.0245 8.09607C14.0546 8.289 13.1637 8.7652 12.4645 9.46447C11.7652 10.1637 11.289 11.0546 11.0961 12.0245C10.9031 12.9945 11.0022 13.9998 11.3806 14.9134C11.759 15.827 12.3999 16.6079 13.2221 17.1573C14.0444 17.7068 15.0111 18 16 18C17.3256 17.9985 18.5965 17.4712 19.5339 16.5339C20.4712 15.5965 20.9985 14.3256 21 13ZM13 13C13 12.4067 13.1759 11.8266 13.5056 11.3333C13.8352 10.8399 14.3038 10.4554 14.8519 10.2284C15.4001 10.0013 16.0033 9.94189 16.5853 10.0576C17.1672 10.1734 17.7018 10.4591 18.1213 10.8787C18.5409 11.2982 18.8266 11.8328 18.9424 12.4147C19.0581 12.9967 18.9987 13.5999 18.7716 14.1481C18.5446 14.6962 18.1601 15.1648 17.6667 15.4944C17.1734 15.8241 16.5933 16 16 16C15.2046 15.9991 14.4421 15.6827 13.8797 15.1203C13.3173 14.5579 13.0009 13.7954 13 13Z" fill="white"/>
</svg>
