<svg width="10" height="16" viewBox="0 0 10 16" fill="none" xmlns="http://www.w3.org/2000/svg">
<path d="M0.652242 16C0.523245 16 0.39714 15.9673 0.289878 15.906C0.182616 15.8446 0.0990151 15.7575 0.0496479 15.6555C0.000280743 15.5535 -0.0126347 15.4412 0.0125356 15.333C0.037706 15.2247 0.0998316 15.1252 0.191054 15.0472L8.42549 8.00002L0.191054 0.952882C0.0687393 0.848202 2.27871e-05 0.706225 2.27884e-05 0.558185C2.27897e-05 0.410145 0.0687393 0.268169 0.191054 0.163489C0.313369 0.0588085 0.479263 1.10298e-09 0.652242 0C0.825221 -1.10298e-09 0.991115 0.0588085 1.11343 0.163489L9.80895 7.60533C9.86952 7.65716 9.91757 7.71869 9.95035 7.78641C9.98313 7.85413 10 7.92672 10 8.00002C10 8.07333 9.98313 8.14591 9.95035 8.21363C9.91757 8.28136 9.86952 8.34289 9.80895 8.39472L1.11343 15.8366C1.05293 15.8885 0.981047 15.9296 0.901899 15.9577C0.822752 15.9857 0.737907 16.0001 0.652242 16Z" fill="white"/>
</svg>
