<svg width="24" height="24" viewBox="0 0 24 24" fill="none" xmlns="http://www.w3.org/2000/svg">
<path d="M21.4876 9.65369C21.4864 9.65556 21.4855 9.65753 21.4842 9.65931C21.4427 9.72173 21.3892 9.77527 21.3267 9.81681C21.3249 9.81812 21.3229 9.81906 21.3209 9.82037C21.292 9.83919 21.2614 9.85529 21.2295 9.86847L21.2224 9.87109C21.1908 9.88375 21.158 9.89348 21.1246 9.90015C21.1227 9.90044 21.1211 9.90053 21.1192 9.9009C21.0851 9.9074 21.0504 9.91072 21.0157 9.91084H16.5157C16.3665 9.91084 16.2234 9.85158 16.1179 9.74609C16.0124 9.6406 15.9532 9.49753 15.9532 9.34834C15.9532 9.19916 16.0124 9.05608 16.1179 8.95059C16.2234 8.84511 16.3665 8.78584 16.5157 8.78584H19.6578L17.4359 6.56397C15.9931 5.12447 14.0382 4.31605 12 4.31605C9.96189 4.31605 8.00698 5.12447 6.56412 6.56397C6.45817 6.6671 6.31586 6.72436 6.168 6.72337C6.02014 6.72237 5.87862 6.6632 5.77406 6.55865C5.6695 6.4541 5.61031 6.31259 5.6093 6.16473C5.60829 6.01687 5.66554 5.87456 5.76865 5.76859C7.42257 4.11829 9.66359 3.19147 12 3.19147C14.3365 3.19147 16.5775 4.11829 18.2314 5.76859L20.4532 7.99047V4.84825C20.4532 4.69906 20.5124 4.55599 20.6179 4.4505C20.7234 4.34501 20.8665 4.28575 21.0157 4.28575C21.1649 4.28575 21.3079 4.34501 21.4134 4.4505C21.5189 4.55599 21.5782 4.69906 21.5782 4.84825V9.34825C21.5781 9.38298 21.5747 9.41763 21.5682 9.45175C21.568 9.45362 21.5678 9.4554 21.5674 9.45719C21.5607 9.4906 21.551 9.52333 21.5383 9.55497C21.5375 9.55731 21.5368 9.55966 21.5359 9.562C21.5227 9.59396 21.5065 9.62462 21.4876 9.65359V9.65369ZM17.4359 17.4359C15.9931 18.8754 14.0382 19.6838 12 19.6838C9.96189 19.6838 8.00698 18.8754 6.56412 17.4359L4.34225 15.2141H7.48437C7.63356 15.2141 7.77663 15.1548 7.88212 15.0493C7.98761 14.9438 8.04687 14.8008 8.04687 14.6516C8.04687 14.5024 7.98761 14.3593 7.88212 14.2538C7.77663 14.1484 7.63356 14.0891 7.48437 14.0891H2.98437C2.94964 14.0892 2.915 14.0925 2.88087 14.099C2.879 14.0994 2.87712 14.0995 2.87534 14.0999C2.842 14.1065 2.80933 14.1162 2.77775 14.1288C2.77531 14.1298 2.77287 14.1304 2.77053 14.1315C2.73865 14.1446 2.70805 14.1607 2.67912 14.1796C2.67725 14.1809 2.67519 14.1819 2.67322 14.1831C2.61083 14.2247 2.55732 14.2782 2.51581 14.3406L2.51244 14.3462C2.49356 14.3752 2.47739 14.4059 2.46416 14.4378L2.46162 14.4449C2.44896 14.4765 2.43924 14.5092 2.43256 14.5427L2.43181 14.5481C2.42532 14.5822 2.42199 14.6169 2.42188 14.6516V19.1516C2.42188 19.3008 2.48114 19.4438 2.58663 19.5493C2.69212 19.6548 2.83519 19.7141 2.98437 19.7141C3.13356 19.7141 3.27663 19.6548 3.38212 19.5493C3.48761 19.4438 3.54687 19.3008 3.54687 19.1516V16.0097L5.76875 18.2314C7.42268 19.8817 9.66368 20.8084 12.0001 20.8084C14.3365 20.8084 16.5775 19.8817 18.2314 18.2314C18.3355 18.1257 18.3935 17.983 18.3929 17.8346C18.3923 17.6863 18.3331 17.5441 18.2282 17.4392C18.1232 17.3343 17.9811 17.275 17.8327 17.2744C17.6843 17.2738 17.5417 17.3319 17.4359 17.436V17.4359Z" fill="white"/>
</svg>
