<svg width="20" height="20" viewBox="0 0 20 20" fill="none" xmlns="http://www.w3.org/2000/svg">
<path d="M14.6875 6.71875C14.2496 6.71826 13.8233 6.86003 13.473 7.12273C13.3697 6.83593 13.2031 6.57609 12.9856 6.36251C12.7681 6.14894 12.5052 5.98711 12.2166 5.88906C11.928 5.79101 11.6209 5.75925 11.3183 5.79615C11.0158 5.83305 10.7254 5.93765 10.4687 6.10219V2.8125C10.4687 2.27378 10.2547 1.75712 9.87381 1.37619C9.49287 0.995256 8.97622 0.78125 8.4375 0.78125C7.89877 0.78125 7.38212 0.995256 7.00119 1.37619C6.62025 1.75712 6.40625 2.27378 6.40625 2.8125V10.537L5.56789 9.08492C5.29969 8.61933 4.85794 8.27896 4.33935 8.13835C3.82076 7.99773 3.26759 8.06831 2.80092 8.33465C2.33426 8.60098 1.99214 9.04137 1.84945 9.55939C1.70676 10.0774 1.77514 10.6309 2.0396 11.0986C4.54586 16.3837 6.20859 18.5938 10 18.5938C11.7813 18.5917 13.4891 17.8832 14.7487 16.6237C16.0082 15.3641 16.7167 13.6563 16.7187 11.875V8.75C16.7181 8.21147 16.5039 7.69517 16.1231 7.31437C15.7423 6.93358 15.226 6.71937 14.6875 6.71875ZM15.7812 11.875C15.7795 13.4078 15.1699 14.8772 14.086 15.961C13.0022 17.0449 11.5327 17.6545 10 17.6562C6.96953 17.6562 5.50546 16.2221 2.87921 10.681C2.8738 10.6696 2.86791 10.6584 2.86156 10.6474C2.78861 10.523 2.74099 10.3853 2.72145 10.2424C2.70191 10.0995 2.71083 9.95415 2.7477 9.8147C2.78457 9.67525 2.84866 9.54447 2.93628 9.42988C3.02389 9.3153 3.13331 9.21918 3.25823 9.14706C3.38315 9.07493 3.5211 9.02823 3.66414 9.00964C3.80718 8.99104 3.95249 9.00093 4.09169 9.03872C4.23089 9.07652 4.36125 9.14147 4.47525 9.22985C4.58925 9.31822 4.68464 9.42828 4.75593 9.55367L6.46906 12.5209C6.52065 12.6102 6.60029 12.6801 6.69562 12.7195C6.79096 12.759 6.89665 12.7659 6.99632 12.7392C7.09599 12.7125 7.18406 12.6537 7.24687 12.5718C7.30969 12.49 7.34374 12.3897 7.34375 12.2865V2.8125C7.34375 2.52242 7.45898 2.24422 7.6641 2.0391C7.86922 1.83398 8.14742 1.71875 8.4375 1.71875C8.72758 1.71875 9.00578 1.83398 9.21089 2.0391C9.41601 2.24422 9.53125 2.52242 9.53125 2.8125V8.125C9.53125 8.24932 9.58063 8.36855 9.66854 8.45646C9.75645 8.54436 9.87568 8.59375 10 8.59375C10.1243 8.59375 10.2435 8.54436 10.3315 8.45646C10.4194 8.36855 10.4687 8.24932 10.4687 8.125V7.8125C10.4687 7.52242 10.584 7.24422 10.7891 7.0391C10.9942 6.83398 11.2724 6.71875 11.5625 6.71875C11.8526 6.71875 12.1308 6.83398 12.3359 7.0391C12.541 7.24422 12.6562 7.52242 12.6562 7.8125V8.75C12.6562 8.87432 12.7056 8.99355 12.7935 9.08146C12.8814 9.16936 13.0007 9.21875 13.125 9.21875C13.2493 9.21875 13.3685 9.16936 13.4565 9.08146C13.5444 8.99355 13.5937 8.87432 13.5937 8.75C13.5937 8.45992 13.709 8.18172 13.9141 7.9766C14.1192 7.77148 14.3974 7.65625 14.6875 7.65625C14.9776 7.65625 15.2558 7.77148 15.4609 7.9766C15.666 8.18172 15.7812 8.45992 15.7812 8.75V11.875Z" fill="#A1A1AC"/>
</svg>
