<svg width="24" height="24" viewBox="0 0 24 24" fill="none" xmlns="http://www.w3.org/2000/svg">
<path d="M12 2.4375C10.1087 2.4375 8.25991 2.99833 6.68736 4.04907C5.11482 5.09981 3.88917 6.59327 3.16541 8.34059C2.44164 10.0879 2.25227 12.0106 2.62125 13.8656C2.99022 15.7205 3.90096 17.4244 5.2383 18.7617C6.57564 20.099 8.27951 21.0098 10.1345 21.3788C11.9894 21.7477 13.9121 21.5584 15.6594 20.8346C17.4067 20.1108 18.9002 18.8852 19.9509 17.3126C21.0017 15.7401 21.5625 13.8913 21.5625 12C21.5597 9.46474 20.5513 7.03414 18.7586 5.24144C16.9659 3.44874 14.5353 2.44035 12 2.4375ZM12 20.4375C10.3312 20.4375 8.69992 19.9426 7.31238 19.0155C5.92484 18.0884 4.84338 16.7706 4.20477 15.2289C3.56616 13.6871 3.39907 11.9906 3.72463 10.3539C4.05019 8.71721 4.85379 7.21379 6.03379 6.03379C7.2138 4.85378 8.71722 4.05019 10.3539 3.72462C11.9906 3.39906 13.6871 3.56615 15.2289 4.20477C16.7706 4.84338 18.0884 5.92484 19.0155 7.31238C19.9427 8.69992 20.4375 10.3312 20.4375 12C20.435 14.237 19.5452 16.3816 17.9634 17.9634C16.3816 19.5452 14.237 20.435 12 20.4375ZM15.5798 11.0342C15.632 11.0864 15.6734 11.1484 15.7017 11.2167C15.73 11.2849 15.7445 11.3581 15.7445 11.432C15.7445 11.5058 15.73 11.579 15.7017 11.6472C15.6734 11.7155 15.632 11.7775 15.5798 11.8298C15.5275 11.882 15.4655 11.9234 15.3973 11.9517C15.329 11.98 15.2558 11.9945 15.182 11.9945C15.1081 11.9945 15.0349 11.98 14.9667 11.9517C14.8984 11.9234 14.8364 11.882 14.7842 11.8298L12.5625 9.60797V15.75C12.5625 15.8992 12.5032 16.0423 12.3978 16.1477C12.2923 16.2532 12.1492 16.3125 12 16.3125C11.8508 16.3125 11.7077 16.2532 11.6023 16.1477C11.4968 16.0423 11.4375 15.8992 11.4375 15.75V9.60797L9.21582 11.8298C9.16358 11.882 9.10156 11.9234 9.03331 11.9517C8.96506 11.98 8.89191 11.9945 8.81804 11.9945C8.74416 11.9945 8.67101 11.98 8.60276 11.9517C8.53451 11.9234 8.47249 11.882 8.42025 11.8298C8.36802 11.7775 8.32658 11.7155 8.29831 11.6472C8.27004 11.579 8.25549 11.5058 8.25549 11.432C8.25549 11.3581 8.27004 11.2849 8.29831 11.2167C8.32658 11.1484 8.36802 11.0864 8.42025 11.0342L11.6022 7.85231C11.6545 7.80007 11.7165 7.75863 11.7847 7.73035C11.853 7.70208 11.9261 7.68753 12 7.68753C12.0739 7.68753 12.147 7.70208 12.2153 7.73035C12.2835 7.75863 12.3456 7.80007 12.3978 7.85231L15.5798 11.0342Z" fill="white"/>
</svg>
